<?xml version="1.0" encoding="UTF-8"?>
<svg version="1.1" xmlns="http://www.w3.org/2000/svg" width="477" height="350">
<path d="M0 0 C157.41 0 314.82 0 477 0 C477 115.5 477 231 477 350 C319.59 350 162.18 350 0 350 C0 234.5 0 119 0 0 Z " fill="#FEFEFE" transform="translate(0,0)"/>
<path d="M0 0 C1.18143585 -0.01007584 2.3628717 -0.02015167 3.58010864 -0.03053284 C6.80569463 -0.05407487 10.03093201 -0.06406124 13.25659347 -0.0659802 C15.2777544 -0.06812058 17.29885558 -0.07454034 19.3200016 -0.08247185 C26.38834071 -0.11018971 33.45651069 -0.12248246 40.52490234 -0.12011719 C47.0853817 -0.118318 53.64511852 -0.14992039 60.20541018 -0.19734818 C65.86007948 -0.23675317 71.51450794 -0.25266138 77.16931325 -0.25075096 C80.53689612 -0.24999086 83.90329673 -0.26108343 87.27083397 -0.29028511 C91.03533845 -0.31986861 94.79796151 -0.31098189 98.5625 -0.29296875 C99.65850021 -0.30982727 100.75450043 -0.32668579 101.88371277 -0.34405518 C110.82601459 -0.23599516 118.51788812 2.45595974 125.34539795 8.37992668 C133.5182699 16.7689314 134.69696493 26.59644351 134.67895508 37.84594727 C134.69311966 39.09460068 134.70728424 40.34325409 134.72187805 41.62974548 C134.75649321 44.91566465 134.77503552 48.20111217 134.78466797 51.48718262 C134.80220042 56.14600618 134.84915885 60.80462302 134.89472961 65.46324158 C134.91727222 67.93825531 134.93305783 70.41334125 134.9415741 72.88844299 C134.95212578 74.55168861 134.95212578 74.55168861 134.96289062 76.24853516 C134.96637009 77.22875137 134.96984955 78.20896759 134.97343445 79.21888733 C134.85694954 81.4093585 134.85694954 81.4093585 136.10473633 82.43579102 C136.20560845 84.94503255 136.24445665 87.42615485 136.23754883 89.93579102 C136.23850555 90.68666992 136.23946228 91.43754883 136.240448 92.21118164 C136.24112971 93.80167728 136.23927605 95.39217569 136.23510742 96.98266602 C136.229759 99.42543756 136.23505267 101.86802523 136.24145508 104.31079102 C136.2407943 105.85245809 136.23951313 107.39412505 136.23754883 108.93579102 C136.23957306 109.67120117 136.24159729 110.40661133 136.24368286 111.16430664 C136.21968793 116.32083941 136.21968793 116.32083941 135.10473633 117.43579102 C135.00344672 119.98048288 134.96760732 122.4982691 134.97343445 125.04356384 C134.97131873 125.84998953 134.96920302 126.65641522 134.96702319 127.48727804 C134.96099402 130.21093309 134.96202543 132.93454218 134.96289062 135.65820312 C134.95986092 137.60269246 134.95633999 139.54718108 134.95236206 141.4916687 C134.94445585 145.69106565 134.93932158 149.89045403 134.9360714 154.0898571 C134.93017201 160.73388658 134.91364008 167.37786218 134.89472961 174.02186584 C134.88839155 176.2950544 134.88206593 178.56824299 134.87575245 180.84143162 C134.87258664 181.98018557 134.86942083 183.11893952 134.86615908 184.29220116 C134.82406968 199.76624287 134.79112704 215.24026038 134.77880859 230.71435547 C134.77042177 241.14230932 134.74790369 251.57013073 134.70945293 261.99801832 C134.68970518 267.51708802 134.67728329 273.03595978 134.68228722 278.55506706 C134.68694222 283.75323476 134.67308136 288.95102807 134.64527512 294.14912033 C134.63837641 296.05256356 134.63822249 297.95604562 134.64547539 299.85948753 C134.68914691 312.61351715 134.23087315 322.94660784 125.02661133 332.68188477 C116.4591319 340.50058042 107.86706587 341.73589839 96.63671875 341.72631836 C95.50083817 341.73303558 94.36495758 341.73975281 93.19465637 341.74667358 C89.44979444 341.76562899 85.70511196 341.76957656 81.96020508 341.77172852 C79.34857612 341.77815805 76.73694789 341.78488653 74.12532043 341.79190063 C68.65384763 341.80466809 63.18242319 341.80766794 57.7109375 341.80639648 C51.40733806 341.80519599 45.1040815 341.82628688 38.80056876 341.85788381 C32.71315252 341.88729844 26.62589947 341.8943696 20.53841591 341.89317703 C17.95932935 341.89553125 15.38024003 341.90434458 12.80119896 341.91984177 C9.18749223 341.93952346 5.57465949 341.93365412 1.9609375 341.92163086 C0.90450043 341.93286987 -0.15193665 341.94410889 -1.24038696 341.95568848 C-11.64726381 341.86807885 -19.42157675 338.74152865 -26.98120117 331.59594727 C-31.80733172 326.14931422 -34.02198307 319.9813554 -34.01551819 312.76008606 C-34.01689285 311.5779805 -34.01826752 310.39587494 -34.01968384 309.177948 C-34.01608856 307.87963043 -34.01249329 306.58131287 -34.00878906 305.24365234 C-34.00850702 303.86391705 -34.00866526 302.48418161 -34.00923157 301.10444641 C-34.00951886 297.35679658 -34.00363305 293.60917867 -33.99665761 289.86153626 C-33.99041283 285.94575299 -33.98981938 282.02996901 -33.9886322 278.11418152 C-33.98552221 270.69817081 -33.97731328 263.28217481 -33.96728271 255.86617059 C-33.95611129 247.42370019 -33.95060853 238.9812291 -33.94558728 230.53875315 C-33.93513041 213.17109059 -33.91753737 195.80344236 -33.89526367 178.43579102 C-34.88526367 178.10579102 -35.87526367 177.77579102 -36.89526367 177.43579102 C-36.89526367 169.84579102 -36.89526367 162.25579102 -36.89526367 154.43579102 C-35.90526367 154.10579102 -34.91526367 153.77579102 -33.89526367 153.43579102 C-33.89526367 151.12579102 -33.89526367 148.81579102 -33.89526367 146.43579102 C-34.88526367 146.43579102 -35.87526367 146.43579102 -36.89526367 146.43579102 C-36.89526367 138.51579102 -36.89526367 130.59579102 -36.89526367 122.43579102 C-35.90526367 122.43579102 -34.91526367 122.43579102 -33.89526367 122.43579102 C-33.89526367 115.50579102 -33.89526367 108.57579102 -33.89526367 101.43579102 C-34.88526367 101.43579102 -35.87526367 101.43579102 -36.89526367 101.43579102 C-36.89526367 97.14579102 -36.89526367 92.85579102 -36.89526367 88.43579102 C-35.41026367 87.94079102 -35.41026367 87.94079102 -33.89526367 87.43579102 C-33.91524918 86.2542746 -33.91524918 86.2542746 -33.93563843 85.04888916 C-34.0565319 77.57690565 -34.14754696 70.10540519 -34.2061367 62.63269424 C-34.23727281 58.79205399 -34.27941223 54.95223073 -34.34790039 51.11206055 C-34.4137382 47.39667647 -34.44910246 43.68207137 -34.46452713 39.96614838 C-34.4754997 38.55806993 -34.49692293 37.15002765 -34.52964401 35.74228668 C-34.74578639 26.04579198 -33.5190973 18.52202278 -27.89526367 10.43579102 C-19.42355035 2.04800749 -11.60912224 -0.01426903 0 0 Z " fill="#FEFDFE" transform="translate(142.895263671875,7.564208984375)"/>
<path d="M0 0 C1.18143585 -0.01007584 2.3628717 -0.02015167 3.58010864 -0.03053284 C6.80569463 -0.05407487 10.03093201 -0.06406124 13.25659347 -0.0659802 C15.2777544 -0.06812058 17.29885558 -0.07454034 19.3200016 -0.08247185 C26.38834071 -0.11018971 33.45651069 -0.12248246 40.52490234 -0.12011719 C47.0853817 -0.118318 53.64511852 -0.14992039 60.20541018 -0.19734818 C65.86007948 -0.23675317 71.51450794 -0.25266138 77.16931325 -0.25075096 C80.53689612 -0.24999086 83.90329673 -0.26108343 87.27083397 -0.29028511 C91.03533845 -0.31986861 94.79796151 -0.31098189 98.5625 -0.29296875 C99.65850021 -0.30982727 100.75450043 -0.32668579 101.88371277 -0.34405518 C110.82601459 -0.23599516 118.51788812 2.45595974 125.34539795 8.37992668 C133.5182699 16.7689314 134.69696493 26.59644351 134.67895508 37.84594727 C134.69311966 39.09460068 134.70728424 40.34325409 134.72187805 41.62974548 C134.75649321 44.91566465 134.77503552 48.20111217 134.78466797 51.48718262 C134.80220042 56.14600618 134.84915885 60.80462302 134.89472961 65.46324158 C134.91727222 67.93825531 134.93305783 70.41334125 134.9415741 72.88844299 C134.95212578 74.55168861 134.95212578 74.55168861 134.96289062 76.24853516 C134.96637009 77.22875137 134.96984955 78.20896759 134.97343445 79.21888733 C134.85694954 81.4093585 134.85694954 81.4093585 136.10473633 82.43579102 C136.20560845 84.94503255 136.24445665 87.42615485 136.23754883 89.93579102 C136.23850555 90.68666992 136.23946228 91.43754883 136.240448 92.21118164 C136.24112971 93.80167728 136.23927605 95.39217569 136.23510742 96.98266602 C136.229759 99.42543756 136.23505267 101.86802523 136.24145508 104.31079102 C136.2407943 105.85245809 136.23951313 107.39412505 136.23754883 108.93579102 C136.23957306 109.67120117 136.24159729 110.40661133 136.24368286 111.16430664 C136.21968793 116.32083941 136.21968793 116.32083941 135.10473633 117.43579102 C135.00344672 119.98048288 134.96760732 122.4982691 134.97343445 125.04356384 C134.97131873 125.84998953 134.96920302 126.65641522 134.96702319 127.48727804 C134.96099402 130.21093309 134.96202543 132.93454218 134.96289062 135.65820312 C134.95986092 137.60269246 134.95633999 139.54718108 134.95236206 141.4916687 C134.94445585 145.69106565 134.93932158 149.89045403 134.9360714 154.0898571 C134.93017201 160.73388658 134.91364008 167.37786218 134.89472961 174.02186584 C134.88839155 176.2950544 134.88206593 178.56824299 134.87575245 180.84143162 C134.87258664 181.98018557 134.86942083 183.11893952 134.86615908 184.29220116 C134.82406968 199.76624287 134.79112704 215.24026038 134.77880859 230.71435547 C134.77042177 241.14230932 134.74790369 251.57013073 134.70945293 261.99801832 C134.68970518 267.51708802 134.67728329 273.03595978 134.68228722 278.55506706 C134.68694222 283.75323476 134.67308136 288.95102807 134.64527512 294.14912033 C134.63837641 296.05256356 134.63822249 297.95604562 134.64547539 299.85948753 C134.68914691 312.61351715 134.23087315 322.94660784 125.02661133 332.68188477 C116.4591319 340.50058042 107.86706587 341.73589839 96.63671875 341.72631836 C95.50083817 341.73303558 94.36495758 341.73975281 93.19465637 341.74667358 C89.44979444 341.76562899 85.70511196 341.76957656 81.96020508 341.77172852 C79.34857612 341.77815805 76.73694789 341.78488653 74.12532043 341.79190063 C68.65384763 341.80466809 63.18242319 341.80766794 57.7109375 341.80639648 C51.40733806 341.80519599 45.1040815 341.82628688 38.80056876 341.85788381 C32.71315252 341.88729844 26.62589947 341.8943696 20.53841591 341.89317703 C17.95932935 341.89553125 15.38024003 341.90434458 12.80119896 341.91984177 C9.18749223 341.93952346 5.57465949 341.93365412 1.9609375 341.92163086 C0.90450043 341.93286987 -0.15193665 341.94410889 -1.24038696 341.95568848 C-11.64726381 341.86807885 -19.42157675 338.74152865 -26.98120117 331.59594727 C-31.80733172 326.14931422 -34.02198307 319.9813554 -34.01551819 312.76008606 C-34.01689285 311.5779805 -34.01826752 310.39587494 -34.01968384 309.177948 C-34.01608856 307.87963043 -34.01249329 306.58131287 -34.00878906 305.24365234 C-34.00850702 303.86391705 -34.00866526 302.48418161 -34.00923157 301.10444641 C-34.00951886 297.35679658 -34.00363305 293.60917867 -33.99665761 289.86153626 C-33.99041283 285.94575299 -33.98981938 282.02996901 -33.9886322 278.11418152 C-33.98552221 270.69817081 -33.97731328 263.28217481 -33.96728271 255.86617059 C-33.95611129 247.42370019 -33.95060853 238.9812291 -33.94558728 230.53875315 C-33.93513041 213.17109059 -33.91753737 195.80344236 -33.89526367 178.43579102 C-34.88526367 178.10579102 -35.87526367 177.77579102 -36.89526367 177.43579102 C-36.89526367 169.84579102 -36.89526367 162.25579102 -36.89526367 154.43579102 C-35.90526367 154.10579102 -34.91526367 153.77579102 -33.89526367 153.43579102 C-33.89526367 151.12579102 -33.89526367 148.81579102 -33.89526367 146.43579102 C-34.88526367 146.43579102 -35.87526367 146.43579102 -36.89526367 146.43579102 C-36.89526367 138.51579102 -36.89526367 130.59579102 -36.89526367 122.43579102 C-35.90526367 122.43579102 -34.91526367 122.43579102 -33.89526367 122.43579102 C-33.89526367 115.50579102 -33.89526367 108.57579102 -33.89526367 101.43579102 C-34.88526367 101.43579102 -35.87526367 101.43579102 -36.89526367 101.43579102 C-36.89526367 97.14579102 -36.89526367 92.85579102 -36.89526367 88.43579102 C-35.41026367 87.94079102 -35.41026367 87.94079102 -33.89526367 87.43579102 C-33.91524918 86.2542746 -33.91524918 86.2542746 -33.93563843 85.04888916 C-34.0565319 77.57690565 -34.14754696 70.10540519 -34.2061367 62.63269424 C-34.23727281 58.79205399 -34.27941223 54.95223073 -34.34790039 51.11206055 C-34.4137382 47.39667647 -34.44910246 43.68207137 -34.46452713 39.96614838 C-34.4754997 38.55806993 -34.49692293 37.15002765 -34.52964401 35.74228668 C-34.74578639 26.04579198 -33.5190973 18.52202278 -27.89526367 10.43579102 C-19.42355035 2.04800749 -11.60912224 -0.01426903 0 0 Z M-22.73510742 12.66625977 C-26.12281647 17.55253188 -28.01652711 21.37216646 -28.03227806 27.38412571 C-28.0373526 28.41153356 -28.04242715 29.43894141 -28.04765546 30.49748284 C-28.04815322 31.62975286 -28.04865098 32.76202289 -28.04916382 33.92860413 C-28.05354607 35.12875969 -28.05792833 36.32891525 -28.06244338 37.56543916 C-28.07351352 40.902831 -28.08005755 44.24017594 -28.08462453 47.57757938 C-28.09058038 51.17489818 -28.10219038 54.77219969 -28.11291504 58.36950684 C-28.13744113 67.06099471 -28.15206737 75.75248832 -28.16497511 84.44400015 C-28.16868717 86.89918447 -28.1726604 89.35436821 -28.17672777 91.80955195 C-28.20196661 107.05760717 -28.22401865 122.30566328 -28.23645592 137.55373478 C-28.2393856 141.08595343 -28.24234726 144.61817205 -28.24536133 148.15039062 C-28.24610738 149.02830237 -28.24685343 149.90621412 -28.24762209 150.81072926 C-28.26027108 165.02696906 -28.29348767 179.24308365 -28.33516316 193.45926494 C-28.37760581 208.05690923 -28.40115372 222.65448947 -28.40637648 237.2521953 C-28.40978818 245.44734532 -28.42151458 253.64229975 -28.45447922 261.83738899 C-28.4825131 268.81812233 -28.49346455 275.79861999 -28.48228376 282.77940524 C-28.47710535 286.33924675 -28.47992946 289.898595 -28.5047493 293.45836449 C-28.5314745 297.32380591 -28.51915318 301.18857924 -28.50326538 305.05409241 C-28.52408851 306.72907487 -28.52408851 306.72907487 -28.54533231 308.43789536 C-28.46368242 316.51381983 -26.71636998 323.34129232 -21.08123243 329.37961251 C-16.53933697 333.57186107 -12.11003086 335.68974325 -5.85221863 335.67630005 C-4.36522461 335.68042404 -4.36522461 335.68042404 -2.84819031 335.68463135 C-1.77213028 335.6774408 -0.69607025 335.67025024 0.41259766 335.6628418 C1.55449554 335.66313385 2.69639343 335.6634259 3.87289429 335.66372681 C7.64426289 335.66233436 11.41543352 335.64677684 15.18676758 335.63110352 C17.80278923 335.62737309 20.41881227 335.62452626 23.03483582 335.62252808 C29.21478966 335.6163181 35.39467253 335.59991385 41.57459515 335.5798291 C48.61205208 335.55745505 55.64951245 335.54647288 62.6869961 335.53643823 C77.15961275 335.51554718 91.63217354 335.4803806 106.10473633 335.43579102 C106.35940674 334.76539795 106.61407715 334.09500488 106.87646484 333.40429688 C107.2212085 332.51621338 107.56595215 331.62812988 107.92114258 330.71313477 C108.25831299 329.8364917 108.5954834 328.95984863 108.94287109 328.05664062 C111.47867166 322.33656937 115.18125243 316.8918697 121.10473633 314.43579102 C123.43403373 314.07533411 125.76732923 313.73924387 128.10473633 313.43579102 C128.19629746 276.37291531 128.2667779 239.31005665 128.30899765 202.24709073 C128.31400046 197.87118855 128.31917775 193.49528661 128.32446289 189.11938477 C128.32603675 187.81264322 128.32603675 187.81264322 128.32764241 186.47950286 C128.34504629 172.37491201 128.3765839 158.2703864 128.41334751 144.16583425 C128.45075739 129.69260086 128.47297228 115.21940163 128.48109031 100.74612188 C128.48657799 91.81575221 128.50390855 82.88556693 128.5364022 73.95525402 C128.55755066 67.83088987 128.56393563 61.70662101 128.55874184 55.582223 C128.55618055 52.04904055 128.56009886 48.51618024 128.58155823 44.98305511 C128.60467084 41.14967676 128.59667934 37.31671676 128.58575439 33.48327637 C128.60323144 31.81399511 128.60323144 31.81399511 128.62106156 30.110991 C128.56324327 22.61105818 127.42898732 17.2120235 122.32348633 11.41235352 C121.75629883 10.96633789 121.18911133 10.52032227 120.60473633 10.06079102 C120.03754883 9.59930664 119.47036133 9.13782227 118.88598633 8.66235352 C114.41345873 5.5825867 110.69111774 5.01424887 105.29223633 4.93579102 C104.62514648 4.89454102 103.95805664 4.85329102 103.27075195 4.81079102 C97.93775346 4.73229242 94.09943413 6.23214396 89.26147461 8.43359375 C81.37344619 11.77136004 74.09292462 12.27178212 65.55395508 12.12719727 C64.11961747 12.12360487 62.68527268 12.12226595 61.25093079 12.12303162 C58.27489703 12.11839039 55.2999734 12.09393622 52.32421875 12.05322266 C48.53746786 12.00202411 44.75191861 11.99078954 40.96486187 11.9930582 C38.01427552 11.99223753 35.0639442 11.97570941 32.11344337 11.95405388 C30.71781137 11.94461153 29.32215101 11.93861971 27.92648888 11.93637276 C11.98505042 11.88252569 11.98505042 11.88252569 5.10473633 8.43579102 C4.44473633 7.44579102 3.78473633 6.45579102 3.10473633 5.43579102 C-6.67153601 3.98566409 -16.13145213 4.66055452 -22.73510742 12.66625977 Z " fill="#47455D" transform="translate(142.895263671875,7.564208984375)"/>
<path d="M0 0 C24.91648367 -0.04010881 24.91648367 -0.04010881 35.49804688 -0.04882812 C42.73202239 -0.05481712 49.9659853 -0.06191893 57.19995117 -0.07543945 C63.02894288 -0.08626645 68.85792109 -0.09227643 74.68692207 -0.09487724 C76.9161761 -0.09673183 79.14542935 -0.10035308 81.37467766 -0.10573006 C84.48539734 -0.11293799 87.59606049 -0.11399105 90.70678711 -0.11352539 C91.63826569 -0.11712067 92.56974426 -0.12071594 93.52944946 -0.12442017 C99.88594784 -0.11405216 99.88594784 -0.11405216 101 1 C101.09353163 2.68801985 101.11744791 4.37995207 101.11352539 6.07055664 C101.11340454 7.16678345 101.11328369 8.26301025 101.11315918 9.39245605 C101.10804321 10.55329712 101.10292725 11.71413818 101.09765625 12.91015625 C101.09664917 13.97069214 101.09564209 15.03122803 101.09460449 16.12390137 C101.08935387 20.10344517 101.07539276 24.08297362 101.0625 28.0625 C101.041875 36.951875 101.02125 45.84125 101 55 C67.67 55 34.34 55 0 55 C0 36.85 0 18.7 0 0 Z " fill="#6C63FF" transform="translate(134,47)"/>
<path d="M0 0 C5.35558268 0.03732113 10.02504744 0.53793462 15.1171875 2.265625 C15.6121875 3.750625 15.6121875 3.750625 16.1171875 5.265625 C18.11384064 6.95101101 18.11384064 6.95101101 20.1171875 8.265625 C19.48426969 12.70448855 17.79705751 16.42259248 15.8046875 20.390625 C15.50884766 21.01066406 15.21300781 21.63070312 14.90820312 22.26953125 C13.13584131 25.82956686 11.5432182 28.19336802 8.1171875 30.265625 C8.39336283 32.20637361 8.39336283 32.20637361 9.1171875 34.265625 C11.96385679 36.16340453 13.25830095 36.62367434 16.4921875 37.203125 C21.38432015 38.23555559 24.82015702 39.36996507 27.7421875 43.640625 C28.4228125 44.94 28.4228125 44.94 29.1171875 46.265625 C30.11141953 47.9357389 31.11065289 49.60289656 32.1171875 51.265625 C32.1754128 48.18237142 32.21085884 45.09925995 32.2421875 42.015625 C32.26732422 40.70658203 32.26732422 40.70658203 32.29296875 39.37109375 C32.29941406 38.52675781 32.30585938 37.68242187 32.3125 36.8125 C32.32297363 36.03745117 32.33344727 35.26240234 32.34423828 34.46386719 C32.08884733 31.99124344 31.27474762 30.44436443 30.1171875 28.265625 C29.65756451 24.58864105 29.63616425 22.94262069 31.8046875 19.890625 C34.1171875 18.265625 34.1171875 18.265625 36.6171875 17.765625 C40.02243125 18.44667375 41.14266733 19.4135403 43.1171875 22.265625 C43.43649266 25.71412067 43.25299943 28.61447193 42.546875 32 C42.04190998 35.83773415 42.39503588 39.33920702 42.9296875 43.140625 C43.0229834 43.85387939 43.1162793 44.56713379 43.21240234 45.30200195 C43.68524866 48.75964117 44.24650574 52.10792082 45.2421875 55.453125 C46.51550574 61.00115446 46.64441483 66.59793121 46.1171875 72.265625 C45.4571875 73.255625 44.7971875 74.245625 44.1171875 75.265625 C39.16975993 74.86175336 36.02025838 73.86077717 31.8203125 71.25 C29.38171562 69.84053575 26.80320934 69.07767811 24.1171875 68.265625 C23.1271875 67.770625 23.1271875 67.770625 22.1171875 67.265625 C22.1171875 77.495625 22.1171875 87.725625 22.1171875 98.265625 C4.2971875 98.265625 -13.5228125 98.265625 -31.8828125 98.265625 C-33.1779283 90.49493018 -34.27618582 83.19039568 -34.6328125 75.390625 C-34.68824219 74.4934375 -34.74367187 73.59625 -34.80078125 72.671875 C-35.04418548 67.67102446 -34.73632524 63.99383107 -32.8828125 59.265625 C-32.73040852 57.81154115 -32.62191403 56.35176294 -32.5703125 54.890625 C-31.97262099 49.64324515 -30.80721369 45.94429942 -26.8828125 42.265625 C-21.00594552 38.5382217 -14.49953841 35.5449456 -7.9453125 33.2265625 C-7.2646875 32.90945312 -6.5840625 32.59234375 -5.8828125 32.265625 C-5.5528125 31.275625 -5.2228125 30.285625 -4.8828125 29.265625 C-5.6253125 28.440625 -6.3678125 27.615625 -7.1328125 26.765625 C-10.83695067 22.59326712 -12.23834034 17.74761657 -12.8828125 12.265625 C-12.47699853 9.10484859 -11.76871017 8.00874888 -9.8828125 5.265625 C-6.8203125 3.453125 -6.8203125 3.453125 -3.8828125 2.265625 C-1.8828125 0.265625 -1.8828125 0.265625 0 0 Z " fill="#6C63FE" transform="translate(193.8828125,135.734375)"/>
<path d="M0 0 C4.43728151 -0.11586755 8.87417591 -0.18714058 13.3125 -0.25 C14.57513672 -0.28351563 15.83777344 -0.31703125 17.13867188 -0.3515625 C18.95141602 -0.37089844 18.95141602 -0.37089844 20.80078125 -0.390625 C21.91622314 -0.41157227 23.03166504 -0.43251953 24.1809082 -0.45410156 C27 0 27 0 28.828125 1.86889648 C35.53882332 14.072581 33.56826206 29.31280628 31.33984375 42.46484375 C30.65287799 49.61086684 32.23621112 55.37578281 34.9765625 61.859375 C35.57033923 63.31899954 36.16408844 64.77863528 36.7578125 66.23828125 C37.69423389 68.50631558 38.63444954 70.77273613 39.57617188 73.03857422 C40.48972344 75.2460073 41.38980989 77.45858687 42.2890625 79.671875 C42.57544586 80.34796814 42.86182922 81.02406128 43.15689087 81.72064209 C44.23500861 84.38141522 45.050453 86.45944018 44.78051758 89.3515625 C43.67180036 91.69315106 42.15513207 92.75147866 40.0625 94.25 C38.99708984 95.03117187 38.99708984 95.03117187 37.91015625 95.828125 C36 97 36 97 34 97 C28.06 84.13 22.12 71.26 16 58 C17.31293508 70.23596994 17.31293508 70.23596994 18.6328125 82.47119141 C18.79712488 84.01462186 18.96120294 85.55807728 19.125 87.1015625 C19.21136719 87.89135498 19.29773438 88.68114746 19.38671875 89.49487305 C19.46792969 90.26565186 19.54914063 91.03643066 19.6328125 91.83056641 C19.70387207 92.49230865 19.77493164 93.1540509 19.84814453 93.83584595 C20.03866463 96.5510253 20 99.2781446 20 102 C16.04 102 12.08 102 8 102 C6.91997315 99.8399463 6.72767241 98.35436458 6.47509766 95.96289062 C6.33943642 94.70622086 6.33943642 94.70622086 6.20103455 93.42416382 C6.10633377 92.51075226 6.011633 91.5973407 5.9140625 90.65625 C5.8124733 89.70779205 5.71088409 88.75933411 5.60621643 87.78213501 C5.27550016 84.68846566 4.95008098 81.59426617 4.625 78.5 C4.17747297 74.27846497 3.72774497 70.05716676 3.27734375 65.8359375 C3.16717422 64.80040741 3.0570047 63.76487732 2.9434967 62.69796753 C2.21440233 55.88348664 1.41972169 49.08112388 0.57666016 42.27978516 C-1.19612123 27.90846708 -1.27678624 14.43956161 0 0 Z " fill="#323145" transform="translate(344,232)"/>
<path d="M0 0 C11.48033623 0.44155139 11.48033623 0.44155139 15.921875 4.0234375 C17.5536813 7.76699312 17.21650328 11.43738071 16.984375 15.4609375 C18.634375 15.4609375 20.284375 15.4609375 21.984375 15.4609375 C22.171875 17.8359375 22.171875 17.8359375 21.984375 20.4609375 C17.8048105 23.24731383 15.83768823 22.25656262 10.984375 21.4609375 C10.984375 22.7809375 10.984375 24.1009375 10.984375 25.4609375 C12.634375 25.4609375 14.284375 25.4609375 15.984375 25.4609375 C18.48465402 31.62817177 20.05662121 37.69648925 21.39453125 44.20703125 C21.60750351 45.21758072 21.82047577 46.22813019 22.03990173 47.26930237 C22.71478976 50.47781105 23.38104823 53.68803752 24.046875 56.8984375 C24.49745856 59.05025348 24.94862508 61.20194748 25.40039062 63.35351562 C26.03906598 66.39543682 26.67695979 69.4374918 27.31007385 72.48057556 C27.50044724 73.39504959 27.69082062 74.30952362 27.88696289 75.25170898 C28.06889191 76.12713348 28.25082092 77.00255798 28.43826294 77.9045105 C29.11928861 81.09248697 29.86022574 84.2653137 30.62083435 87.43519592 C31.22137717 90.78157426 31.04493675 94.06947923 30.984375 97.4609375 C31.314375 97.7909375 31.644375 98.1209375 31.984375 98.4609375 C32.02518283 100.46052114 32.02691856 102.46139004 31.984375 104.4609375 C29.609375 105.0859375 29.609375 105.0859375 26.984375 105.4609375 C24.68963853 103.16620103 24.62028347 102.38580846 24.109375 99.2734375 C23.25435413 94.63189565 22.18295349 90.08564404 20.984375 85.5234375 C20.489375 83.62271484 20.489375 83.62271484 19.984375 81.68359375 C19.11823196 78.35493185 19.11823196 78.35493185 16.984375 75.4609375 C14.07824066 74.94947552 14.07824066 74.94947552 10.6640625 74.94921875 C8.77880859 74.89604492 8.77880859 74.89604492 6.85546875 74.84179688 C4.87740234 74.80795898 4.87740234 74.80795898 2.859375 74.7734375 C1.51949741 74.74027221 0.17965189 74.70578328 -1.16015625 74.66992188 C-4.4452283 74.58720423 -7.73002532 74.51813057 -11.015625 74.4609375 C-10.40965465 69.22011282 -9.58846797 64.494035 -8.015625 59.4609375 C-8.758125 59.4196875 -9.500625 59.3784375 -10.265625 59.3359375 C-13.28737913 58.37447028 -14.49200585 57.3702894 -16.1015625 54.6484375 C-19.38579056 46.78874642 -20.32941334 38.32438824 -20.0546875 29.8828125 C-20.00240337 26.6411966 -20.44918724 23.64714991 -21.015625 20.4609375 C-19.365625 20.1309375 -17.715625 19.8009375 -16.015625 19.4609375 C-13.61281276 22.32080642 -12.59090539 24.40653999 -12.015625 28.0859375 C-11.09013919 33.35650073 -9.6410319 38.36799588 -8.015625 43.4609375 C-7.02892741 41.56901275 -6.0515648 39.67221772 -5.078125 37.7734375 C-4.53285156 36.71769531 -3.98757813 35.66195312 -3.42578125 34.57421875 C-2.1685674 31.79859703 -1.45492931 29.45821624 -1.015625 26.4609375 C-0.025625 26.4609375 0.964375 26.4609375 1.984375 26.4609375 C1.984375 25.1409375 1.984375 23.8209375 1.984375 22.4609375 C1.22125 22.2134375 0.458125 21.9659375 -0.328125 21.7109375 C-3.39259742 20.28560149 -4.34146676 19.3647872 -6.015625 16.4609375 C-6.1953125 13.5859375 -6.1953125 13.5859375 -5.890625 10.4609375 C-5.80554688 9.4296875 -5.72046875 8.3984375 -5.6328125 7.3359375 C-4.84201975 3.65224471 -3.91896637 0.89619774 0 0 Z " fill="#E6E5E5" transform="translate(354.015625,157.5390625)"/>
<path d="M0 0 C1.25159912 0.00523682 2.50319824 0.01047363 3.79272461 0.01586914 C5.00839111 0.0183667 6.22405762 0.02086426 7.4765625 0.0234375 C9.03366943 0.0325415 10.59077637 0.04164551 12.19506836 0.05102539 C17.12444336 0.07165039 22.05381836 0.09227539 27.13256836 0.11352539 C27.13256836 18.26352539 27.13256836 36.41352539 27.13256836 55.11352539 C22.20319336 55.13415039 17.27381836 55.15477539 12.19506836 55.17602539 C9.85940796 55.1896814 9.85940796 55.1896814 7.4765625 55.20361328 C5.65306274 55.20735962 5.65306274 55.20735962 3.79272461 55.21118164 C2.54112549 55.21641846 1.28952637 55.22165527 0 55.22705078 C-2.86743164 55.11352539 -2.86743164 55.11352539 -3.86743164 54.11352539 C-3.96611673 52.46161143 -3.99542001 50.80549322 -3.99682617 49.15063477 C-3.99997833 48.09283813 -4.00313049 47.0350415 -4.00637817 45.94519043 C-4.00334183 44.21867249 -4.00334183 44.21867249 -4.00024414 42.45727539 C-4.00120087 41.28467163 -4.00215759 40.11206787 -4.00314331 38.90393066 C-4.00382534 36.41894477 -4.00196948 33.93395711 -3.99780273 31.44897461 C-3.99245483 27.63008652 -3.997747 23.81131605 -4.00415039 19.99243164 C-4.00348961 17.5848793 -4.00220846 15.17732702 -4.00024414 12.76977539 C-4.00226837 11.61876343 -4.0042926 10.46775146 -4.00637817 9.28186035 C-4.00322601 8.22406372 -4.00007385 7.16626709 -3.99682617 6.07641602 C-3.99603058 5.14011353 -3.99523499 4.20381104 -3.99441528 3.23913574 C-3.79703853 -0.06480218 -3.3607599 0.13305691 0 0 Z " fill="#E6E6E6" transform="translate(243.867431640625,46.886474609375)"/>
<path d="M0 0 C3.06098472 3.6390984 4.8483913 7.68238609 6.79296875 11.9765625 C7.14386063 12.74302094 7.4947525 13.50947937 7.85627747 14.29916382 C8.59395009 15.91354167 9.32922897 17.52901521 10.06225586 19.14550781 C11.18798737 21.62607392 12.32291318 24.10228006 13.45898438 26.578125 C14.17502944 28.14818666 14.89054287 29.71849091 15.60546875 31.2890625 C15.94603806 32.03177399 16.28660736 32.77448547 16.63749695 33.53970337 C19 38.76943108 19 38.76943108 19 41 C21.97 39.02 24.94 37.04 28 35 C28.53625 35.680625 29.0725 36.36125 29.625 37.0625 C30.9236384 38.66871066 32.24084492 40.26268766 33.63671875 41.78515625 C34.46623047 42.69587891 34.46623047 42.69587891 35.3125 43.625 C35.84488281 44.19476563 36.37726563 44.76453125 36.92578125 45.3515625 C37.45751953 46.16753906 37.45751953 46.16753906 38 47 C36.70260723 50.89217831 35.1656021 51.36906577 31.6875 53.4375 C27.78310276 55.76762759 25.29347833 57.70652167 22 61 C36.85 61 51.7 61 67 61 C67 61.33 67 61.66 67 62 C55.98649989 62.06947901 44.97305184 62.12280064 33.95937729 62.15543652 C28.8453981 62.17109929 23.73156874 62.19234883 18.61767578 62.22631836 C13.6834287 62.25888984 8.74932583 62.2768484 3.81497955 62.28463173 C1.93148783 62.2901792 0.04800408 62.30101195 -1.83542633 62.31719017 C-4.47151307 62.33893507 -7.10700222 62.34196816 -9.74316406 62.34057617 C-10.52359573 62.351362 -11.3040274 62.36214783 -12.10810852 62.3732605 C-16.34784515 62.34899992 -18.93456919 62.05461928 -22 59 C-21.67 58.01 -21.34 57.02 -21 56 C-19.07814487 55.27102047 -17.15276916 54.54932139 -15.20703125 53.88671875 C-11.26552819 52.30314141 -6.93751562 49.87503124 -5 46 C-1.7 46 1.6 46 5 46 C4.80664062 44.54851562 4.61328125 43.09703125 4.4140625 41.6015625 C3.14743506 32.03384165 1.89520457 22.46553633 0.8125 12.875 C0.72887207 12.14877441 0.64524414 11.42254883 0.55908203 10.67431641 C0.16444082 7.09878213 -0.09099069 3.5976319 0 0 Z " fill="#F7F7F8" transform="translate(359,288)"/>
<path d="M0 0 C5.35558268 0.03732113 10.02504744 0.53793462 15.1171875 2.265625 C15.4471875 3.255625 15.7771875 4.245625 16.1171875 5.265625 C18.11384064 6.95101101 18.11384064 6.95101101 20.1171875 8.265625 C19.48426969 12.70448855 17.79705751 16.42259248 15.8046875 20.390625 C15.50884766 21.01066406 15.21300781 21.63070312 14.90820312 22.26953125 C13.14531905 25.8105295 11.59947444 28.29831238 8.1171875 30.265625 C7.4571875 30.265625 6.7971875 30.265625 6.1171875 30.265625 C6.14039063 31.09707031 6.16359375 31.92851562 6.1875 32.78515625 C6.20554688 33.87183594 6.22359375 34.95851562 6.2421875 36.078125 C6.26539063 37.15707031 6.28859375 38.23601562 6.3125 39.34765625 C6.1171875 42.265625 6.1171875 42.265625 4.1171875 45.265625 C-2.31914841 41.22140324 -2.31914841 41.22140324 -4.3203125 37.828125 C-4.8828125 35.265625 -4.8828125 35.265625 -4.6953125 32.328125 C-4.91906365 28.67352292 -6.16199898 27.70322281 -8.55859375 25.09375 C-11.58476436 20.91602775 -13.26582493 15.24880632 -12.60546875 10.10546875 C-11.37313185 6.67096768 -9.93396541 5.29589917 -6.8203125 3.453125 C-5.36625 2.8653125 -5.36625 2.8653125 -3.8828125 2.265625 C-1.8828125 0.265625 -1.8828125 0.265625 0 0 Z " fill="#9E626C" transform="translate(193.8828125,135.734375)"/>
<path d="M0 0 C0.99 0.495 0.99 0.495 2 1 C1.67 10.9 1.34 20.8 1 31 C9.58 30.67 18.16 30.34 27 30 C27.33 21.42 27.66 12.84 28 4 C28.33 4 28.66 4 29 4 C29.02886338 8.47915328 29.04675187 12.95828291 29.0625 17.4375 C29.07087891 18.71689453 29.07925781 19.99628906 29.08789062 21.31445312 C29.09111328 22.52939453 29.09433594 23.74433594 29.09765625 24.99609375 C29.10289307 26.12200928 29.10812988 27.2479248 29.11352539 28.40795898 C29 31 29 31 28 32 C24.90029236 32.10067034 21.82282329 32.136143 18.72265625 32.12939453 C17.74875946 32.13114685 16.77486267 32.13289917 15.77145386 32.13470459 C12.53511806 32.13912499 9.2988364 32.13618445 6.0625 32.1328125 C3.82430002 32.13348549 1.58610012 32.13445546 -0.65209961 32.13571167 C-5.34977919 32.1371889 -10.0474398 32.13503329 -14.74511719 32.13037109 C-20.78160614 32.1246738 -26.81805064 32.12795267 -32.85453796 32.13394356 C-37.47831561 32.1375485 -42.10208264 32.13641089 -46.7258606 32.13381577 C-48.95232142 32.13314631 -51.1787832 32.13397556 -53.40524292 32.13629532 C-56.51107355 32.13882074 -59.6168311 32.1349828 -62.72265625 32.12939453 C-63.65256378 32.13141876 -64.58247131 32.13344299 -65.54055786 32.13552856 C-71.88573773 32.11426227 -71.88573773 32.11426227 -73 31 C-73.09983058 29.01242972 -73.13080753 27.0213248 -73.1328125 25.03125 C-73.13410156 23.82082031 -73.13539063 22.61039063 -73.13671875 21.36328125 C-73.13285156 20.08839844 -73.12898437 18.81351563 -73.125 17.5 C-73.12886719 16.22511719 -73.13273438 14.95023438 -73.13671875 13.63671875 C-73.13542969 12.42628906 -73.13414062 11.21585938 -73.1328125 9.96875 C-73.13168457 8.84919922 -73.13055664 7.72964844 -73.12939453 6.57617188 C-73 4 -73 4 -72 3 C-69.64686445 2.92728259 -67.29166332 2.91629132 -64.9375 2.9375 C-63.64714844 2.94652344 -62.35679687 2.95554688 -61.02734375 2.96484375 C-60.02832031 2.97644531 -59.02929688 2.98804688 -58 3 C-57.67 2.34 -57.34 1.68 -57 1 C-54.98062827 3.01937173 -55.62938296 7.03076642 -55.5 9.8125 C-55.15069313 16.89566714 -54.58964334 23.92427989 -54 31 C-36.18 31 -18.36 31 0 31 C0 20.77 0 10.54 0 0 Z " fill="#F4F3FA" transform="translate(216,203)"/>
<path d="M0 0 C3.40524375 0.68104875 4.52547983 1.6479153 6.5 4.5 C6.81930516 7.94849567 6.63581193 10.84884693 5.9296875 14.234375 C5.42472248 18.07210915 5.77784838 21.57358202 6.3125 25.375 C6.4057959 26.08825439 6.4990918 26.80150879 6.59521484 27.53637695 C7.06806116 30.99401617 7.62931824 34.34229582 8.625 37.6875 C9.89831824 43.23552946 10.02722733 48.83230621 9.5 54.5 C8.84 55.49 8.18 56.48 7.5 57.5 C1.18368172 57.09683075 -3.14993984 54.78767869 -8.5 51.5 C-8.12577304 48.22551412 -7.69468832 46.71894832 -5.46826172 44.21508789 C-3.0596955 40.89262883 -3.06975206 39.29725435 -3.2578125 35.24609375 C-3.30679688 34.06208984 -3.35578125 32.87808594 -3.40625 31.65820312 C-3.4784375 30.43037109 -3.550625 29.20253906 -3.625 27.9375 C-3.67398438 26.70580078 -3.72296875 25.47410156 -3.7734375 24.20507812 C-4.02044767 17.06469652 -4.02044767 17.06469652 -6.5 10.5 C-6.95962299 6.82301605 -6.98102325 5.17699569 -4.8125 2.125 C-2.5 0.5 -2.5 0.5 0 0 Z " fill="#A1656E" transform="translate(230.5,153.5)"/>
<path d="M0 0 C2.46413828 0.07554989 4.89818795 0.0949663 7.36132812 0.06591797 C8.10797226 0.06124512 8.85461639 0.05657227 9.62388611 0.05175781 C11.24446567 0.04125921 12.86503232 0.0285978 14.48558044 0.01403427 C17.04902365 -0.00796503 19.61239319 -0.02205854 22.17590332 -0.03366089 C29.46421396 -0.06728323 36.75240204 -0.10898646 44.04052734 -0.17138672 C48.49840486 -0.2089893 52.95615694 -0.23204285 57.41416931 -0.24569321 C59.11428834 -0.25375881 60.81439028 -0.26738363 62.51441956 -0.28662491 C64.88932877 -0.31303979 67.26363426 -0.320991 69.63867188 -0.32470703 C70.34317978 -0.3370639 71.04768768 -0.34942078 71.77354431 -0.3621521 C76.07980779 -0.34434116 76.78008776 -0.21991224 80 3 C-9.1 3 -98.2 3 -190 3 C-190 2.34 -190 1.68 -190 1 C-182.35928097 0.84615508 -174.71846997 0.69797403 -167.07750225 0.5570364 C-163.52955293 0.49141618 -159.98166325 0.4238406 -156.43383789 0.35180664 C-152.3557274 0.26909145 -148.27750095 0.19486275 -144.19921875 0.12109375 C-142.92414963 0.09405869 -141.64908051 0.06702362 -140.33537292 0.03916931 C-139.15437515 0.01907303 -137.97337738 -0.00102325 -136.7565918 -0.02172852 C-135.71512497 -0.04171402 -134.67365814 -0.06169952 -133.60063171 -0.08229065 C-131 0 -131 0 -128 1 C-126.4043239 1.09362123 -124.80502116 1.13059189 -123.206604 1.13371277 C-121.72628693 1.14011024 -121.72628693 1.14011024 -120.21606445 1.14663696 C-118.59365845 1.14595718 -118.59365845 1.14595718 -116.93847656 1.14526367 C-115.79836121 1.14862228 -114.65824585 1.1519809 -113.48358154 1.15544128 C-109.70258504 1.16496457 -105.92163277 1.16689522 -102.140625 1.16796875 C-99.51609275 1.17118084 -96.89156068 1.17454487 -94.26702881 1.17805481 C-88.75907096 1.18445222 -83.25112513 1.18593713 -77.74316406 1.18530273 C-71.38630056 1.18470271 -65.02952213 1.19523958 -58.67268014 1.2110464 C-52.55004609 1.225726 -46.42745267 1.22928999 -40.30480194 1.22869301 C-37.70370893 1.22987304 -35.1026153 1.23429613 -32.50153351 1.24202538 C-28.86065131 1.25182954 -25.21998733 1.24894513 -21.57910156 1.24291992 C-19.96884094 1.25134918 -19.96884094 1.25134918 -18.3260498 1.25994873 C-12.69427183 1.23628269 -4.97626636 -1.65875545 0 0 Z " fill="#EFEFEF" transform="translate(261,347)"/>
<path d="M0 0 C5.35558268 0.03732113 10.02504744 0.53793462 15.1171875 2.265625 C15.4471875 3.255625 15.7771875 4.245625 16.1171875 5.265625 C18.11384064 6.95101101 18.11384064 6.95101101 20.1171875 8.265625 C19.51020007 12.39313949 18.07907959 15.5977398 16.1171875 19.265625 C13.83850164 18.12628207 11.6628186 16.98434902 9.4921875 15.640625 C4.39374016 13.56347979 -0.8880445 13.03686584 -6.08203125 15.16796875 C-8.21165187 16.343696 -8.21165187 16.343696 -10.8828125 18.265625 C-12.65663352 14.43790597 -13.00451637 12.71440801 -11.8828125 8.578125 C-9.58599349 4.77401851 -7.92942296 3.9014888 -3.8828125 2.265625 C-1.8828125 0.265625 -1.8828125 0.265625 0 0 Z " fill="#11101B" transform="translate(193.8828125,135.734375)"/>
<path d="M0 0 C1.41777182 0.08785338 2.83429039 0.19604647 4.25 0.3125 C5.43335938 0.39951172 5.43335938 0.39951172 6.640625 0.48828125 C9.55147782 1.1196086 10.87068511 1.91056822 13 4 C13.45410156 6.72729492 13.45410156 6.72729492 13.390625 9.98046875 C13.37773437 11.14384766 13.36484375 12.30722656 13.3515625 13.50585938 C13.31804687 14.72080078 13.28453125 15.93574219 13.25 17.1875 C13.23195312 18.41404297 13.21390625 19.64058594 13.1953125 20.90429688 C13.14811124 23.93697759 13.08227677 26.96810087 13 30 C9.37 30 5.74 30 2 30 C-0.07466627 19.88600193 -0.20533136 10.26656776 0 0 Z " fill="#9E616D" transform="translate(160,204)"/>
<path d="M0 0 C4.1117256 -0.02465746 8.22342278 -0.04283959 12.33520508 -0.05493164 C13.73495228 -0.0599708 15.1346942 -0.06680216 16.53442383 -0.07543945 C18.54245777 -0.0875232 20.55052957 -0.09269807 22.55859375 -0.09765625 C24.37315063 -0.10551147 24.37315063 -0.10551147 26.22436523 -0.11352539 C29 0 29 0 30 1 C30 4.3 30 7.6 30 11 C20.1 11 10.2 11 0 11 C0 7.37 0 3.74 0 0 Z " fill="#6E65FF" transform="translate(215,122)"/>
<path d="M0 0 C1.20970459 0.00523682 2.41940918 0.01047363 3.66577148 0.01586914 C4.97094727 0.0190918 6.27612305 0.02231445 7.62084961 0.02563477 C9.00952213 0.03399138 10.39819401 0.04245634 11.78686523 0.05102539 C13.17944179 0.05603873 14.57202005 0.06060193 15.96459961 0.06469727 C19.38456394 0.07653105 22.80444367 0.09301659 26.22436523 0.11352539 C26.22436523 3.74352539 26.22436523 7.37352539 26.22436523 11.11352539 C16.32436523 11.11352539 6.42436523 11.11352539 -3.77563477 11.11352539 C-3.77563477 0.15442609 -3.77563477 0.15442609 0 0 Z " fill="#E6E6E6" transform="translate(181.775634765625,121.886474609375)"/>
<path d="M0 0 C4.1117256 -0.02465746 8.22342278 -0.04283959 12.33520508 -0.05493164 C13.73495228 -0.0599708 15.1346942 -0.06680216 16.53442383 -0.07543945 C18.54245777 -0.0875232 20.55052957 -0.09269807 22.55859375 -0.09765625 C24.37315063 -0.10551147 24.37315063 -0.10551147 26.22436523 -0.11352539 C29 0 29 0 30 1 C30.0979057 2.49738124 30.12974864 3.99942892 30.125 5.5 C30.12886719 6.72203125 30.12886719 6.72203125 30.1328125 7.96875 C30 10 30 10 29 11 C26.85441173 11.08775605 24.70595579 11.10695219 22.55859375 11.09765625 C21.25341797 11.09443359 19.94824219 11.09121094 18.60351562 11.08789062 C17.2148431 11.07953401 15.82617123 11.07106905 14.4375 11.0625 C13.04492344 11.05748666 11.65234519 11.05292347 10.25976562 11.04882812 C6.8398013 11.03699434 3.41992156 11.0205088 0 11 C0 7.37 0 3.74 0 0 Z " fill="#E6E6E6" transform="translate(142,122)"/>
<path d="M0 0 C11.3697196 0.0782769 11.3697196 0.0782769 16.01953125 3.828125 C17.65133755 7.57168062 17.31415953 11.24206821 17.08203125 15.265625 C18.73203125 15.265625 20.38203125 15.265625 22.08203125 15.265625 C22.26953125 17.640625 22.26953125 17.640625 22.08203125 20.265625 C18.72875486 22.50114259 18.17459468 22.43846028 14.39453125 21.890625 C13.58628906 21.77976563 12.77804687 21.66890625 11.9453125 21.5546875 C11.33042969 21.45929688 10.71554687 21.36390625 10.08203125 21.265625 C9.75203125 18.625625 9.42203125 15.985625 9.08203125 13.265625 C7.65890625 12.894375 7.65890625 12.894375 6.20703125 12.515625 C3.08203125 11.265625 3.08203125 11.265625 1.70703125 9.140625 C1.50078125 8.521875 1.29453125 7.903125 1.08203125 7.265625 C-0.56796875 7.595625 -2.21796875 7.925625 -3.91796875 8.265625 C-4.04296875 5.390625 -4.04296875 5.390625 -3.91796875 2.265625 C-1.91796875 0.265625 -1.91796875 0.265625 0 0 Z " fill="#363549" transform="translate(353.91796875,157.734375)"/>
<path d="M0 0 C0.99 0.33 1.98 0.66 3 1 C3 2.32 3 3.64 3 5 C4.32 5 5.64 5 7 5 C7.66 3.68 8.32 2.36 9 1 C9.66 1 10.32 1 11 1 C11.33 4.63 11.66 8.26 12 12 C8.25291686 13.87354157 3.74852647 13.22800786 -0.375 13.25 C-1.81359375 13.2809375 -1.81359375 13.2809375 -3.28125 13.3125 C-4.20679688 13.31765625 -5.13234375 13.3228125 -6.0859375 13.328125 C-6.9320459 13.3374707 -7.7781543 13.34681641 -8.64990234 13.35644531 C-11.48420219 12.92655982 -12.86636983 11.86469554 -15 10 C-14.67 9.01 -14.34 8.02 -14 7 C-12.05741482 6.24272103 -10.10972528 5.49454503 -8.1328125 4.83203125 C-6.04392019 4.0171337 -4.48983809 3.06778991 -2.6875 1.75 C-1.800625 1.1725 -0.91375 0.595 0 0 Z " fill="#39374B" transform="translate(352,337)"/>
<path d="M0 0 C3.78717347 1.48781815 5.77407001 3.61988409 8 7 C6.70902709 10.87291872 5.19088359 11.40234904 1.75 13.5 C0.79609375 14.0878125 -0.1578125 14.675625 -1.140625 15.28125 C-2.55601562 16.13203125 -2.55601562 16.13203125 -4 17 C-4.86496094 17.56332031 -5.72992188 18.12664062 -6.62109375 18.70703125 C-9.82267977 20.44713794 -12.41826131 20.21069051 -16 20 C-15.38073236 16.87582957 -14.32503069 14.703681 -12.5625 12.0625 C-10.66227375 9.12428889 -9.14380113 6.32742147 -8 3 C-6.68 3.33 -5.36 3.66 -4 4 C-4 4.66 -4 5.32 -4 6 C-2.68 5.67 -1.36 5.34 0 5 C0 3.35 0 1.7 0 0 Z " fill="#353448" transform="translate(389,328)"/>
<path d="M0 0 C0.66 0.99 1.32 1.98 2 3 C3.32 2.67 4.64 2.34 6 2 C6.556875 3.175625 6.556875 3.175625 7.125 4.375 C9.43306306 7.60628829 11.21616321 8.07506212 15 9 C15 12.96 15 16.92 15 21 C12.36 21 9.72 21 7 21 C7 20.01 7 19.02 7 18 C6.236875 17.7525 5.47375 17.505 4.6875 17.25 C1.61664468 15.8216952 0.65928082 14.92349478 -1 12 C-1.07421875 8.984375 -1.07421875 8.984375 -0.6875 5.75 C-0.56761719 4.67234375 -0.44773437 3.5946875 -0.32421875 2.484375 C-0.21722656 1.66453125 -0.11023438 0.8446875 0 0 Z " fill="#F2A7AA" transform="translate(349,162)"/>
<path d="M0 0 C20.46 0 40.92 0 62 0 C62 0.99 62 1.98 62 3 C41.54 3 21.08 3 0 3 C0 2.01 0 1.02 0 0 Z " fill="#EAEAEA" transform="translate(163,270)"/>
<path d="M0 0 C20.46 0 40.92 0 62 0 C62 0.99 62 1.98 62 3 C41.54 3 21.08 3 0 3 C0 2.01 0 1.02 0 0 Z " fill="#E9E9E9" transform="translate(163,262)"/>
<path d="M0 0 C0.99 0.33 1.98 0.66 3 1 C5.44743986 1.11929387 7.8686787 1.18518708 10.31713867 1.20532227 C11.05884811 1.21522186 11.80055756 1.22512146 12.56474304 1.23532104 C15.01578583 1.26690257 17.466848 1.29168021 19.91796875 1.31640625 C21.61762495 1.33697867 23.31727607 1.35797522 25.016922 1.37937927 C29.49014163 1.4345702 33.96340721 1.48399262 38.43670654 1.53222656 C43.00146574 1.58246332 47.56615823 1.63813804 52.13085938 1.69335938 C61.08718259 1.80090452 70.04356373 1.9023576 79 2 C79 2.33 79 2.66 79 3 C51.61 3 24.22 3 -4 3 C-2.68 2.01 -1.36 1.02 0 0 Z " fill="#F4F4F4" transform="translate(258,346)"/>
<path d="M0 0 C1.98 0 3.96 0 6 0 C7.80230168 3.82989106 8.19622241 6.78121808 8 11 C5.625 11.625 5.625 11.625 3 12 C0.50494038 9.50494038 0.64051624 8.32671112 0.375 4.875 C0.30023438 3.96492187 0.22546875 3.05484375 0.1484375 2.1171875 C0.09945313 1.41851562 0.05046875 0.71984375 0 0 Z " fill="#F7ACAF" transform="translate(378,251)"/>
<path d="M0 0 C4.70588235 0.70588235 4.70588235 0.70588235 6 2 C6.07205511 3.68608966 6.08386068 5.37500659 6.0625 7.0625 C6.05347656 7.98160156 6.04445313 8.90070313 6.03515625 9.84765625 C6.02355469 10.55792969 6.01195312 11.26820313 6 12 C4.35 12 2.7 12 1 12 C-0.41404314 8.19975907 -1.34892324 5.07077118 -1 1 C-0.67 0.67 -0.34 0.34 0 0 Z " fill="#F7AAAD" transform="translate(334,177)"/>
<path d="M0 0 C1.5625 1.625 1.5625 1.625 3 4 C2.6875 7.25 2.6875 7.25 2 10 C0.68 10.33 -0.64 10.66 -2 11 C-2 10.34 -2 9.68 -2 9 C-3.32 8.34 -4.64 7.68 -6 7 C-6 6.01 -6 5.02 -6 4 C-3 1.8125 -3 1.8125 0 0 Z " fill="#EEA4A8" transform="translate(387,323)"/>
<path d="M0 0 C2.64 0 5.28 0 8 0 C7.45276317 3.37462715 6.9451 5.08235 5 8 C3.68 8 2.36 8 1 8 C0.26919734 6.02253397 -0.39421747 4.01927511 -1 2 C-0.67 1.34 -0.34 0.68 0 0 Z " fill="#EDA2A5" transform="translate(354,334)"/>
<path d="M0 0 C2.3431213 0.25561323 4.67843403 0.59270772 7 1 C7.33 1.66 7.66 2.32 8 3 C5.36 3 2.72 3 0 3 C0 2.01 0 1.02 0 0 Z " fill="#F3F1F2" transform="translate(217,204)"/>
</svg>
