<?xml version="1.0" encoding="UTF-8"?>
<svg version="1.1" xmlns="http://www.w3.org/2000/svg" width="609" height="90">
<path d="M0 0 C200.97 0 401.94 0 609 0 C609 29.7 609 59.4 609 90 C408.03 90 207.06 90 0 90 C0 60.3 0 30.6 0 0 Z " fill="#FDFEFF" transform="translate(0,0)"/>
<path d="M0 0 C4.49625 -0.0825 8.9925 -0.165 13.625 -0.25 C15.03217285 -0.28641602 16.4393457 -0.32283203 17.88916016 -0.36035156 C29.34650414 -0.46237014 29.34650414 -0.46237014 34 4 C36.59036348 7.41457004 36.43108741 10.83282171 36 15 C34.125 18.4375 34.125 18.4375 32 21 C31.34 21 30.68 21 30 21 C30 21.66 30 22.32 30 23 C30.7425 23.226875 31.485 23.45375 32.25 23.6875 C35.80512083 25.38426222 37.0834718 26.52185622 39 30 C39.66804551 34.93611405 39.67749034 39.37402319 37.75 44 C35.06916184 47.06381504 32.87247612 48.70917463 29 50 C26.78910055 50.08358958 24.57573922 50.10731764 22.36328125 50.09765625 C20.60818237 50.09390991 20.60818237 50.09390991 18.81762695 50.09008789 C16.58758911 50.07643188 16.58758911 50.07643188 14.3125 50.0625 C9.589375 50.041875 4.86625 50.02125 0 50 C0 33.5 0 17 0 0 Z " fill="#149BFF" transform="translate(296,11)"/>
<path d="M0 0 C3.3 0 6.6 0 10 0 C10 17.82 10 35.64 10 54 C6.7 54 3.4 54 0 54 C-0.33 52.68 -0.66 51.36 -1 50 C-1.78375 50.66 -2.5675 51.32 -3.375 52 C-7.66681456 54.84764947 -12.02630269 54.77764648 -17 54 C-21.67751213 51.92110572 -24.25135189 49.13557778 -26.30859375 44.5390625 C-28.5111388 36.45062023 -28.01718534 27.36483979 -24 20 C-21.08115364 16.40757371 -19.68563551 15.23754213 -15.1171875 14.59375 C-8.98003726 14.41280208 -6.47470792 14.71517525 -1 18 C-0.67 12.06 -0.34 6.12 0 0 Z " fill="#149CFF" transform="translate(232,8)"/>
<path d="M0 0 C2.97 0 5.94 0 9 0 C9 17.82 9 35.64 9 54 C6.03 54 3.06 54 0 54 C-0.495 51.525 -0.495 51.525 -1 49 C-1.598125 49.639375 -2.19625 50.27875 -2.8125 50.9375 C-6.54324659 54.45506107 -10.51125768 54.47018237 -15.42578125 54.3984375 C-19.86316223 53.71161981 -22.36478585 51.54289902 -25 48 C-28.34664973 41.83260264 -28.90450023 34.88029949 -28 28 C-26.57432483 23.25580409 -23.98392715 18.86928191 -19.96875 15.84765625 C-15.57868791 13.95749063 -10.62343314 14.12708619 -6 15 C-4.02 16.32 -2.04 17.64 0 19 C0 12.73 0 6.46 0 0 Z " fill="#119BFF" transform="translate(460,8)"/>
<path d="M0 0 C2.97 0 5.94 0 9 0 C9 17.82 9 35.64 9 54 C6.03 54 3.06 54 0 54 C-0.495 51.525 -0.495 51.525 -1 49 C-1.598125 49.639375 -2.19625 50.27875 -2.8125 50.9375 C-6.42059359 54.33941681 -9.98723134 54.35402265 -14.71875 54.26953125 C-18.4173489 53.83253926 -20.29597631 52.51537087 -23 50 C-26.99485976 44.6384777 -27.39575436 39.87645291 -27.5 33.375 C-27.51853027 32.64643799 -27.53706055 31.91787598 -27.55615234 31.16723633 C-27.48277423 24.85024431 -25.03993309 21.42242055 -21 16.625 C-16.2675033 14.06156429 -11.25496891 14.08021136 -6 15 C-4.02 16.32 -2.04 17.64 0 19 C0 12.73 0 6.46 0 0 Z " fill="#119AFF" transform="translate(414,8)"/>
<path d="M0 0 C2.84579569 1.44722088 4.63806928 3.3013898 6.578125 5.8046875 C7.640625 9.3046875 7.640625 9.3046875 7.640625 21.3046875 C-0.609375 21.3046875 -8.859375 21.3046875 -17.359375 21.3046875 C-15.34786237 28.07958642 -15.34786237 28.07958642 -12.359375 29.3046875 C-6.53323359 29.64188251 -6.53323359 29.64188251 -1.359375 27.3046875 C-1.029375 26.6446875 -0.699375 25.9846875 -0.359375 25.3046875 C3.01566169 26.4905112 5.28785231 27.58042439 7.640625 30.3046875 C2.49530951 36.87925729 2.49530951 36.87925729 -1.359375 38.3046875 C-8.59830775 39.15160697 -15.82098824 39.52997209 -21.8046875 34.89453125 C-26.66947165 29.91973941 -27.63430277 25.19904729 -27.921875 18.3046875 C-27.67264674 10.27781862 -25.37160612 6.39415531 -19.921875 0.8046875 C-13.71393541 -1.8091818 -6.48219619 -1.9103161 0 0 Z " fill="#179DFF" transform="translate(278.359375,23.6953125)"/>
<path d="M0 0 C1.31613281 -0.02578125 2.63226563 -0.0515625 3.98828125 -0.078125 C7.90431997 0.26923218 9.66509323 0.78927944 12.6875 3.25 C15.28292941 6.88336644 16.05496484 9.32459799 15.98046875 13.76953125 C15.9659668 15.3019043 15.9659668 15.3019043 15.95117188 16.86523438 C15.92603516 17.92033203 15.90089844 18.97542969 15.875 20.0625 C15.85469727 21.67415039 15.85469727 21.67415039 15.83398438 23.31835938 C15.79872577 25.96275455 15.74944366 28.60611748 15.6875 31.25 C17.0075 31.25 18.3275 31.25 19.6875 31.25 C19.6875 33.56 19.6875 35.87 19.6875 38.25 C16.82141871 39.68304064 14.87449217 39.55644155 11.6875 39.25 C8.3125 37.25 8.3125 37.25 5.6875 35.25 C5.254375 35.724375 4.82125 36.19875 4.375 36.6875 C1.09865711 39.72115083 -2.77503923 39.6400894 -7.01953125 39.60546875 C-10.94807031 38.99644481 -12.63732013 37.12581836 -15.3125 34.25 C-16.55301319 30.52846044 -16.9835646 27.11050644 -16.3125 23.25 C-11.75565206 17.26099985 -6.31985327 16.14225167 0.69921875 14.71484375 C2.74600436 14.31735276 2.74600436 14.31735276 4.6875 13.25 C4.3575 11.6 4.0275 9.95 3.6875 8.25 C-2.47907087 7.74660646 -5.25884477 9.07907907 -10.3125 12.25 C-10.9725 12.25 -11.6325 12.25 -12.3125 12.25 C-13.3025 10.27 -14.2925 8.29 -15.3125 6.25 C-9.88209859 1.64596402 -7.24227443 0.05523184 0 0 Z " fill="#169CFF" transform="translate(180.3125,22.75)"/>
<path d="M0 0 C3.3 0 6.6 0 10 0 C10.2673999 0.72179443 10.5347998 1.44358887 10.81030273 2.18725586 C12.01653593 5.43839645 13.22695944 8.68796092 14.4375 11.9375 C14.85837891 13.07380859 15.27925781 14.21011719 15.71289062 15.38085938 C16.11572266 16.46044922 16.51855469 17.54003906 16.93359375 18.65234375 C17.4913147 20.15269165 17.4913147 20.15269165 18.06030273 21.68334961 C18.79397075 23.92379217 18.79397075 23.92379217 20 25 C22.97 16.75 25.94 8.5 29 0 C32.3 0 35.6 0 39 0 C36.61933746 8.50599713 33.59045687 16.7079524 30.43920898 24.95117188 C29.56015308 27.25615388 28.69300638 29.56539861 27.82617188 31.875 C27.26113764 33.35964959 26.69540657 34.84403421 26.12890625 36.328125 C25.87460342 37.00949524 25.6203006 37.69086548 25.35829163 38.3928833 C22.58716819 45.5671967 19.05456403 51.47271798 12 55 C10.33555539 55.0955931 8.66718037 55.12984645 7 55.125 C6.113125 55.12757812 5.22625 55.13015625 4.3125 55.1328125 C2 55 2 55 0 54 C0.33 51.36 0.66 48.72 1 46 C2.03060547 45.94392578 2.03060547 45.94392578 3.08203125 45.88671875 C3.98308594 45.82097656 4.88414062 45.75523438 5.8125 45.6875 C6.70582031 45.62949219 7.59914063 45.57148437 8.51953125 45.51171875 C11.00329082 45.14746122 11.00329082 45.14746122 12.88671875 43.83203125 C14.59554302 41.01996605 13.70651235 39.17197945 13 36 C12.06942149 33.31517758 11.10174786 30.68641404 10.05859375 28.046875 C9.77146011 27.3054425 9.48432648 26.56401001 9.18849182 25.80010986 C8.27689195 23.44793205 7.35779519 21.09878795 6.4375 18.75 C5.51448457 16.38661936 4.59315799 14.02262472 3.67579651 11.65704346 C3.10616323 10.18884432 2.53313548 8.7219568 1.95640564 7.25653076 C0 2.22407613 0 2.22407613 0 0 Z " fill="#159CFF" transform="translate(476,23)"/>
<path d="M0 0 C2.97 0 5.94 0 9 0 C9.01981934 0.80219971 9.03963867 1.60439941 9.06005859 2.4309082 C9.15519495 6.05844177 9.2649208 9.68539045 9.375 13.3125 C9.4059375 14.57513672 9.436875 15.83777344 9.46875 17.13867188 C9.50742187 18.34716797 9.54609375 19.55566406 9.5859375 20.80078125 C9.6173584 21.91622314 9.6487793 23.03166504 9.68115234 24.1809082 C9.805249 27.20368786 9.805249 27.20368786 12 30 C15.71640139 30.27028374 18.457201 30.180933 22 29 C23.24562227 25.83561846 23.19611941 22.50865665 23.31640625 19.140625 C23.35830078 18.02558594 23.40019531 16.91054688 23.44335938 15.76171875 C23.48267578 14.60285156 23.52199219 13.44398437 23.5625 12.25 C23.60568359 11.07566406 23.64886719 9.90132812 23.69335938 8.69140625 C23.79934794 5.79438549 23.90141638 2.89728065 24 0 C26.97 0 29.94 0 33 0 C33 12.54 33 25.08 33 38 C30.03 38 27.06 38 24 38 C23.67 36.68 23.34 35.36 23 34 C22.401875 34.639375 21.80375 35.27875 21.1875 35.9375 C17.53637046 39.37999356 13.9922511 39.2846427 9.22265625 39.21484375 C6.10825774 38.91380347 4.34439875 38.0602292 2 36 C-0.13766037 31.86722111 -0.23324532 28.33930632 -0.1953125 23.73046875 C-0.1924826 23.04946609 -0.18965271 22.36846344 -0.18673706 21.66682434 C-0.17560525 19.50686545 -0.15051457 17.34733206 -0.125 15.1875 C-0.11496111 13.71680289 -0.10583685 12.24609924 -0.09765625 10.77539062 C-0.07568913 7.18345714 -0.0412082 3.59177015 0 0 Z " fill="#0F9AFF" transform="translate(344,23)"/>
<path d="M0 0 C12.87 0 25.74 0 39 0 C39 2.64 39 5.28 39 8 C34.05 8 29.1 8 24 8 C24 22.19 24 36.38 24 51 C20.7 51 17.4 51 14 51 C14 36.81 14 22.62 14 8 C9.38 8 4.76 8 0 8 C0 5.36 0 2.72 0 0 Z " fill="#0F9AFF" transform="translate(95,11)"/>
<path d="M0 0 C3.3 0 6.6 0 10 0 C10.33 1.32 10.66 2.64 11 4 C11.495 3.34 11.99 2.68 12.5 2 C16.10340212 -0.8827217 18.46985042 -0.30200997 23 0 C24.10844919 3.32534757 23.84454356 5.62182575 23 9 C22.07767578 9.03867187 22.07767578 9.03867187 21.13671875 9.078125 C20.32847656 9.13484375 19.52023438 9.1915625 18.6875 9.25 C17.88699219 9.29640625 17.08648437 9.3428125 16.26171875 9.390625 C13.21835829 10.21059777 12.60275676 11.31673307 11 14 C10.49888483 16.79763443 10.49888483 16.79763443 10.48828125 19.859375 C10.45283203 20.97441406 10.41738281 22.08945312 10.38085938 23.23828125 C10.34702148 24.97658203 10.34702148 24.97658203 10.3125 26.75 C10.27833984 27.92433594 10.24417969 29.09867188 10.20898438 30.30859375 C10.12654827 33.20563389 10.05738189 36.10237298 10 39 C6.7 39 3.4 39 0 39 C0 26.13 0 13.26 0 0 Z " fill="#189DFF" transform="translate(137,23)"/>
<path d="M0 0 C2.96858157 2.20740681 3.82865791 3.48597373 5 7 C5.36928024 12.63152372 5.14319824 16.11058051 2 21 C-1.7205836 23.48038907 -3.59796571 23.46337203 -8 23 C-11.20259144 20.64019578 -12.26004722 18.81843558 -13 15 C-13.50246372 9.59851498 -13.56872681 5.39227915 -10 1 C-6.80508241 -0.59745879 -3.46790611 -0.50816842 0 0 Z " fill="#F6FBFF" transform="translate(455,31)"/>
<path d="M0 0 C3.57617771 0.11725173 4.1878422 0.50027091 7.1875 2.875 C9.6719505 6.4290275 9.83239047 9.8447005 9.62109375 14.08984375 C8.95923653 17.76881586 7.63546359 19.69204176 5.1875 22.5 C2.05889505 24.06430248 -0.36852925 23.85627284 -3.8125 23.5 C-7.59634795 19.815727 -8.72358271 16.87821799 -9.0625 11.625 C-8.99442747 5.45309101 -6.30413153 0.82677135 0 0 Z " fill="#F7FBFF" transform="translate(404.8125,30.5)"/>
<path d="M0 0 C3.72167537 0.87698885 4.95992961 2.25706067 6.97265625 5.46484375 C7.78687909 11.18154515 7.50519073 16.22606304 4.97265625 21.46484375 C1.81818499 23.83069719 -1.17903312 23.86570944 -5.02734375 23.46484375 C-8.16325945 21.6849997 -8.86837111 20.94176168 -10.02734375 17.46484375 C-10.49506198 12.08225038 -10.81814067 7.17823707 -8.52734375 2.21484375 C-5.66310249 0.20987486 -3.49974196 -0.26820452 0 0 Z " fill="#FAFCFF" transform="translate(225.02734375,30.53515625)"/>
<path d="M0 0 C2.60478883 -0.0809313 5.20706653 -0.14045434 7.8125 -0.1875 C8.55048828 -0.21263672 9.28847656 -0.23777344 10.04882812 -0.26367188 C15.46855541 -0.33724283 15.46855541 -0.33724283 17.98828125 1.26171875 C19.19290174 3.3314335 19.40213556 4.61207052 19.375 7 C19.38273437 7.680625 19.39046875 8.36125 19.3984375 9.0625 C19 11 19 11 17.98828125 12.73828125 C14.81313323 14.75315907 11.44355401 14.31117782 7.8125 14.1875 C6.68811523 14.16719727 6.68811523 14.16719727 5.54101562 14.14648438 C3.69370233 14.11118539 1.84675934 14.05737917 0 14 C0 9.38 0 4.76 0 0 Z " fill="#FDFEFF" transform="translate(306,39)"/>
<path d="M0 0 C1.8975 -0.061875 3.795 -0.12375 5.75 -0.1875 C7.35101563 -0.23970703 7.35101563 -0.23970703 8.984375 -0.29296875 C12.34620409 0.03363382 13.67508711 0.5809835 16 3 C16.5 6.5 16.5 6.5 16 10 C13.67508711 12.4190165 12.34620409 12.96636618 8.984375 13.29296875 C7.91703125 13.25816406 6.8496875 13.22335938 5.75 13.1875 C2.90375 13.0946875 2.90375 13.0946875 0 13 C0 8.71 0 4.42 0 0 Z " fill="#F8FCFF" transform="translate(306,18)"/>
<path d="M0 0 C0.48372093 7.25581395 0.48372093 7.25581395 -1.625 10.5 C-4.65139498 12.41140736 -6.48156769 12.45892595 -10 12 C-12 10 -12 10 -12.4375 7.0625 C-12 4 -12 4 -9.8125 2.1875 C-6.512376 0.79411431 -3.58581128 0 0 0 Z " fill="#F5FAFF" transform="translate(186,43)"/>
<path d="M0 0 C2.4375 1.75 2.4375 1.75 4 4 C4 5.32 4 6.64 4 8 C-1.28 8 -6.56 8 -12 8 C-11 3 -11 3 -9.375 1.1875 C-6.02959229 -0.48520386 -3.69013497 -0.46126687 0 0 Z " fill="#F5FBFF" transform="translate(273,30)"/>
</svg>
